<?xml version="1.0" encoding="utf-8"?>
<svg viewBox="0 -2.266 681.436 127.266" fill="none" xmlns="http://www.w3.org/2000/svg">
  <defs>
    <linearGradient id="paint0_linear" x1="0.241228" y1="57.0533" x2="124.758" y2="67.9471" gradientUnits="userSpaceOnUse">
      <stop stop-color="#FFC107"/>
      <stop offset="1" stop-color="#FFA751"/>
    </linearGradient>
  </defs>
  <path fill-rule="evenodd" clip-rule="evenodd" d="M108.928 20.6706C111.004 22.9747 112.909 25.4313 114.626 28.0252L115.531 29.205L116.323 30.7325C122.735 41.5724 125.94 54.4456 124.758 67.9461C121.75 102.331 91.4373 127.767 57.0529 124.758C22.6688 121.75 -2.76673 91.4375 0.241592 57.0523C3.24976 22.6687 33.5626 -2.76665 67.9468 0.241579C78.7491 1.18666 88.6683 4.82668 97.104 10.4464L98.4396 11.3177L99.9079 12.4305C101.894 13.9163 103.786 15.5164 105.571 17.2175L107.465 18.9606L108.928 20.6706ZM94.6 15.4516C87.295 10.9471 76.5861 7.01338 67.442 6.21337C36.1423 3.475 8.55515 26.5567 5.82467 57.7663C3.09403 88.9775 26.2541 116.498 57.5537 119.236C88.8536 121.975 116.44 98.894 119.171 67.6828C120.2 55.9145 116.547 42.6783 111.164 33.0904L107.759 36.472L66.1806 77.453L111.249 45.1743C113.741 52.0326 114.862 59.5038 114.184 67.2465C111.694 95.711 86.5341 116.762 57.9887 114.264C29.4428 111.767 8.32138 86.6671 10.8117 58.2026C13.3019 29.7391 38.4609 8.6889 67.0069 11.1864C72.7493 11.6887 76.5813 12.1667 81.591 14.3424L56.1837 41.1434L87.2074 20.508L94.6 15.4516ZM103.806 23.7165L100.626 27.2185L49.382 76.1345L105.106 37.5277L111.164 33.0904C109.59 30.6816 106.893 26.7924 103.806 23.7165ZM94.6 15.4516L83.7281 26.8266L57.5736 54.0709L99.5365 26.2363L103.806 23.7165C101.099 20.4483 96.3739 16.7548 94.6 15.4516Z" fill="url(#paint0_linear)"/>
  <text style="fill: rgb(51, 51, 51); font-family: Arial, sans-serif; font-size: 325px; font-weight: 700; white-space: pre;" transform="matrix(0.296508, 0, 0, 0.294811, 130.277849, 95.721452)">DotnetStore</text>
</svg>